<?xml version="1.0" standalone="no"?>
<!DOCTYPE svg PUBLIC "-//W3C//DTD SVG 20010904//EN"
 "http://www.w3.org/TR/2001/REC-SVG-20010904/DTD/svg10.dtd">
<svg version="1.0" xmlns="http://www.w3.org/2000/svg"
 width="512.000000pt" height="512.000000pt" viewBox="0 0 512.000000 512.000000"
 preserveAspectRatio="xMidYMid meet">
<metadata>
Created by potrace 1.16, written by Peter Selinger 2001-2019
</metadata>
<g transform="translate(0.000000,512.000000) scale(0.100000,-0.100000)"
fill="#000000" stroke="none">
<path d="M2305 5114 c-16 -2 -80 -11 -142 -20 -62 -8 -165 -28 -230 -44 -1013
-247 -1745 -1050 -1910 -2095 -26 -159 -25 -633 0 -793 168 -1049 905 -1852
1925 -2096 217 -52 306 -61 617 -61 312 1 415 12 645 70 999 253 1721 1052
1887 2087 26 162 26 634 0 796 -168 1045 -901 1848 -1912 2093 -214 51 -300
61 -585 64 -146 2 -278 1 -295 -1z m520 -235 c429 -44 881 -231 1213 -501 414
-337 699 -809 807 -1333 60 -294 60 -676 0 -970 -74 -359 -241 -715 -469 -995
-82 -102 -235 -259 -316 -325 -113 -92 -288 -203 -450 -283 -371 -185 -758
-263 -1187 -241 -330 18 -622 95 -923 246 -247 123 -432 255 -601 430 -187
194 -309 365 -423 593 -110 222 -180 435 -222 680 -21 128 -30 503 -15 641 32
277 107 534 230 784 230 466 572 810 1032 1039 415 207 851 284 1324 235z"/>
</g>
</svg>
